<svg xmlns="http://www.w3.org/2000/svg" viewBox="0 0 1440 320">
  <path fill="#fcb900" fill-opacity="0.7" d="M0,320L26.7,293.3C53.3,267,107,213,160,181.3C213.3,149,267,139,320,160C373.3,181,427,235,480,240C533.3,245,587,203,640,176C693.3,149,747,139,800,138.7C853.3,139,907,149,960,133.3C1013.3,117,1067,75,1120,53.3C1173.3,32,1227,32,1280,58.7C1333.3,85,1387,139,1413,165.3L1440,192L1440,320L1413.3,320C1386.7,320,1333,320,1280,320C1226.7,320,1173,320,1120,320C1066.7,320,1013,320,960,320C906.7,320,853,320,800,320C746.7,320,693,320,640,320C586.7,320,533,320,480,320C426.7,320,373,320,320,320C266.7,320,213,320,160,320C106.7,320,53,320,27,320L0,320Z"></path>
</svg>